<svg width="512" height="512" viewBox="0 0 512 512" fill="none" xmlns="http://www.w3.org/2000/svg">
<path fill-rule="evenodd" clip-rule="evenodd" d="M174.514 298.164C187.591 298.164 196.97 300.632 202.65 305.567C224.003 318.439 234.679 330.421 234.679 341.511V352.059C234.679 354.793 233.367 359.587 230.742 366.441C221.343 383.572 200.927 392.138 169.492 392.138C160.195 392.195 150.958 390.641 142.192 387.544C119.95 377.338 108.83 363.083 108.83 344.778C108.83 336.732 111.813 329.087 117.778 321.844C132.931 306.06 151.843 298.166 174.514 298.164L174.514 298.164ZM161.708 115.61C166.141 115.738 170.518 116.633 174.646 118.256C187.875 123.636 198.363 134.926 206.111 152.128C210.257 163.926 212.329 173.485 212.329 180.804C212.329 189.199 210.262 197.851 206.127 206.76C199.455 218.682 190.842 224.643 180.288 224.643C172.6 224.643 165.122 222.173 157.855 217.233C138.897 200.67 129.418 181.076 129.418 158.451C129.513 152.989 130.221 147.554 131.527 142.25C137.498 124.49 147.558 115.61 161.708 115.61V115.61ZM363.013 92.06L358.224 96.0454V155.087H299.11L295.196 159.777V176.757L298.822 180.401H358.223V211.156L358.82 243.681H362.121L362.625 244.18H380L383.534 240.646L383.79 187.415V180.401H442.603L447.069 177.038V159.21L442.947 155.088H383.79V96.4354L379.416 92.0604L363.013 92.06ZM177.275 92.06C151.347 92.06 128.637 100.589 109.146 117.647C93.3976 134.306 85.5235 149.917 85.5239 164.48V173.018C85.5239 179.348 87.162 187.43 90.4381 197.265C104.724 228.881 130.159 244.688 166.743 244.686L170.452 244.18L171.38 244.686H167.887C165.319 247.659 163.895 251.449 163.869 255.377V258.645C163.869 265.46 166.176 272.166 170.789 278.763L171.601 279.754L159.803 280.055C144.608 280.896 132.924 282.988 124.753 286.331C112.207 289.605 98.526 297.94 83.7115 311.336C71.9387 324.557 65.6787 337.128 64.9315 349.05V361.32C65.3582 366.427 65.693 368.979 65.9359 368.977C65.9359 371 69.3933 376.428 76.3082 385.26C83.9597 393.265 94.3976 399.64 107.622 404.387C116.287 409.849 132.12 413.781 155.122 416.185H180.305L191.842 414.935H195.927L196.747 414.121C203.443 412.952 211.966 410.427 222.314 406.547C253.797 390.893 269.539 370.494 269.539 345.352L268.93 325.711L264.508 309.408C261.557 301.417 254.633 292.334 243.735 282.16C221.261 266.02 210.025 254.331 210.025 247.091C210.025 241.787 212.511 236.648 217.484 231.676C243.649 212.836 256.732 192.194 256.732 169.75C256.732 148.62 251.129 132.163 239.922 120.38L236.712 117.872H252.159L275.816 98.52L271.943 92.06H177.275ZM256 6.3241C392.856 6.3241 503.8 117.264 503.8 254.127C503.8 390.982 392.857 501.923 256 501.923C119.144 501.923 8.20001 390.982 8.20001 254.127C8.20001 117.265 119.144 6.3241 256 6.3241V6.3241Z" fill="#6C6C6C"/>
</svg>
