<svg width="512" height="512" viewBox="0 0 512 512" fill="none" xmlns="http://www.w3.org/2000/svg">
<g clip-path="url(#clip0)">
<path d="M255.987 0C114.846 0 0.0129395 114.833 0.0129395 255.983C0.0129395 357.564 60.1559 449.579 153.229 490.411L165.739 495.898L165.184 482.262C164.339 461.185 165.713 442.847 169.263 427.768C174.033 407.638 201.101 292.89 201.101 292.89L201.792 289.878L200.444 287.13C200.367 286.985 193.413 272.615 193.413 251.811C193.413 220.681 210.642 196.302 232.632 196.302C255.672 196.302 257.464 218.19 257.464 224.897C257.464 237.996 251.815 256.283 245.842 275.636C242.284 287.147 238.606 299.051 235.849 310.734C232.393 325.343 235.354 339.543 244.186 350.713C253.317 362.259 267.525 368.872 283.166 368.872C332.762 368.872 370.155 308.652 370.155 228.789C370.155 166.026 326.396 125.467 258.676 125.467C184.376 125.467 128.346 180.063 128.346 252.477C128.346 274.254 134.336 291.927 146.676 306.544C148.664 308.874 149.006 309.616 149.04 309.701C149.057 309.803 149.074 310.418 148.443 312.722L147.829 315.188C146.523 320.419 144.433 328.807 143.46 332.477C143.375 332.793 143.289 333.023 143.264 333.16C143.085 333.126 142.846 333.058 142.547 332.93C113.73 321.197 97.2009 289.623 97.2009 246.317C97.2009 145.581 195.624 100.278 265.521 100.278C358.244 100.278 413.651 168.007 413.651 233.5C413.651 328.322 362.246 394.55 288.646 394.55C264.147 394.55 242.523 381.204 235.765 368.31L225.397 348.513L219.927 370.179C219.791 370.751 205.531 427.233 202.579 437.993C198.457 452.935 190.189 470.479 178.686 488.724L172.67 498.264L183.482 501.464C207.008 508.419 231.405 511.96 255.99 511.96C397.123 511.96 511.947 397.127 511.947 255.986C511.945 114.833 397.12 0 255.987 0Z" fill="#6C6C6C"/>
</g>
<defs>
<clipPath id="clip0">
<rect width="511.957" height="511.957" fill="white"/>
</clipPath>
</defs>
</svg>
